<svg width="24.000000" height="24.000000" viewBox="0 0 24 24" fill="none" xmlns="http://www.w3.org/2000/svg" xmlns:xlink="http://www.w3.org/1999/xlink">
	<defs>
		<clipPath id="clip3_2870">
			<rect id="Icon/notifications" width="24.000000" height="24.000000" fill="white" fill-opacity="0"/>
		</clipPath>
	</defs>
	<rect id="Icon/notifications" width="24.000000" height="24.000000" fill="#FFFFFF" fill-opacity="0"/>
	<g clip-path="url(#clip3_2870)">
		<path id="Vector" d="M12 22C13.1 22 14 21.1 14 20L10 20C10 21.1 10.9 22 12 22ZM18 16L18 11C18 7.93 16.37 5.35 13.5 4.68L13.5 4C13.5 3.17 12.83 2.5 12 2.5C11.17 2.5 10.5 3.17 10.5 4L10.5 4.68C7.64 5.35 6 7.92 6 11L6 16L4 18L4 19L20 19L20 18L18 16ZM16 17L8 17L8 11C8 8.52 9.51 6.5 12 6.5C14.49 6.5 16 8.52 16 11L16 17Z" fill="#FFFFFF" fill-opacity="1.000000" fill-rule="nonzero"/>
	</g>
</svg>
