<svg width="24.000000" height="24.000000" viewBox="0 0 24 24" fill="none" xmlns="http://www.w3.org/2000/svg" xmlns:xlink="http://www.w3.org/1999/xlink">
	<defs>
		<clipPath id="clip2_248">
			<rect id="Icon/tag" width="24.000000" height="24.000000" fill="white" fill-opacity="0"/>
		</clipPath>
	</defs>
	<rect id="Icon/tag" width="24.000000" height="24.000000" fill="#FFFFFF" fill-opacity="0"/>
	<g clip-path="url(#clip2_248)">
		<path id="Union" d="M7 20L7.5 16L4 16L4 14L7.75 14L8.25 10L4 10L4 8L8.5 8L9 4L11 4L10.5 8L14.5 8L15 4L17 4L16.5 8L20 8L20 10L16.25 10L15.75 14L20 14L20 16L15.5 16L15 20L13 20L13.5 16L9.5 16L9 20L7 20ZM13.75 14L14.25 10L10.25 10L9.75 14L13.75 14Z" clip-rule="evenodd" fill="#FFFFFF" fill-opacity="1.000000" fill-rule="evenodd"/>
	</g>
</svg>
