<svg width="24.000000" height="24.000000" viewBox="0 0 24 24" fill="none" xmlns="http://www.w3.org/2000/svg" xmlns:xlink="http://www.w3.org/1999/xlink">
	<defs>
		<clipPath id="clip2_244">
			<rect id="Icon/history" width="24.000000" height="24.000000" fill="white" fill-opacity="0"/>
		</clipPath>
	</defs>
	<rect id="Icon/history" width="24.000000" height="24.000000" fill="#FFFFFF" fill-opacity="0"/>
	<g clip-path="url(#clip2_244)">
		<path id="Vector" d="M13 3C8.03 3 4 7.03 4 12L1 12L4.89 15.89L4.96 16.03L9 12L6 12C6 8.13 9.13 5 13 5C16.87 5 20 8.13 20 12C20 15.87 16.87 19 13 19C11.07 19 9.32 18.2 8.06 16.93L6.64 18.36C8.27 19.99 10.51 21 13 21C17.96 21 22 16.96 22 12C22 7.03 17.96 3 13 3ZM12 8L12 13L16.25 15.52L17.02 14.24L13.5 12.15L13.5 8L12 8Z" fill="#FFFFFF" fill-opacity="1.000000" fill-rule="nonzero"/>
	</g>
</svg>
