<svg width="24.000000" height="24.000000" viewBox="0 0 24 24" fill="none" xmlns="http://www.w3.org/2000/svg" xmlns:xlink="http://www.w3.org/1999/xlink">
	<defs>
		<clipPath id="clip3_2025">
			<rect id="Me" width="24.000000" height="24.000000" transform="translate(0.000000 -0.999939)" fill="white" fill-opacity="0"/>
		</clipPath>
	</defs>
	<rect id="Me" width="24.000000" height="24.000000" transform="translate(0.000000 -0.999939)" fill="#FFFFFF" fill-opacity="0"/>
	<g clip-path="url(#clip3_2025)">
		<path id="Vector" d="M4 -1L20 -1C22.2 -1 24 0.79 24 3L24 19C24 21.2 22.2 23 20 23L4 23C1.79 23 0 21.2 0 19L0 3C0 0.79 1.79 -1 4 -1Z" fill="#EFF1F2" fill-opacity="1.000000" fill-rule="nonzero"/>
		<path id="Я" d="M14.61 12.26L11.87 12.26L11.19 11.98C10.44 11.75 9.86 11.39 9.46 10.9C9.06 10.42 8.86 9.81 8.86 9.08C8.86 8.42 9 7.87 9.3 7.42C9.59 6.96 10 6.58 10.54 6.34C11.08 6.11 11.72 6 12.46 6L15.8 6L15.8 16L14.08 16L14.08 7.41L12.46 7.41C11.82 7.41 11.35 7.56 11.04 7.87C10.73 8.18 10.57 8.61 10.57 9.16C10.57 9.53 10.64 9.85 10.78 10.12C10.92 10.39 11.13 10.59 11.4 10.74C11.68 10.88 12.02 10.95 12.43 10.95L14.61 10.95L14.61 12.26ZM12.52 11.5L10.21 16L8.36 16L10.7 11.5L12.52 11.5Z" fill="#656E73" fill-opacity="1.000000" fill-rule="nonzero"/>
	</g>
</svg>
